<?xml version="1.0" encoding="utf-8"?>
<!-- Generator: Adobe Illustrator 16.0.0, SVG Export Plug-In . SVG Version: 6.00 Build 0)  -->
<!DOCTYPE svg PUBLIC "-//W3C//DTD SVG 1.1//EN" "http://www.w3.org/Graphics/SVG/1.1/DTD/svg11.dtd">
<svg version="1.1" id="Layer_1" xmlns="http://www.w3.org/2000/svg" xmlns:xlink="http://www.w3.org/1999/xlink" x="0px" y="0px"
	 width="900.702px" height="213.5px" viewBox="0 0 900.702 213.5" enable-background="new 0 0 900.702 213.5" xml:space="preserve">
<g>
	<g id="XMLID_1_">
		<g>
			<path fill="#E20613" d="M900.701,148.51c0.12,17.19-6.38,33.26-18.47,45.23c-11.851,12.029-27.801,18.6-45.08,18.6h-0.4
				c-17.37,0.12-33.57-6.14-45.66-18.35c-12.27-11.91-18.59-28.051-18.47-45.48v-23.75h-9.33c-2.08,0.12-1.84,0.37-1.84,0.37
				l-0.12,0.12v0.62v27.31c0,15.95-6.26,30.68-17.37,41.79c-10.979,11.29-26.02,17.49-42.04,17.3c-7.479,0.07-15.21-2.64-20.67-8.1
				c0,0-0.06-0.061-0.06-0.12c-5.28,5.52-12.71,8.84-20.78,8.84c-6.23,0-12-1.84-16.84-5.34c-6.721,2.7-16.391,5.34-28.36,5.34
				h-0.43c-19.761,0-38.05-7.24-51.67-21.109c-1.65-1.54-3.13-3.19-4.29-4.91c-0.86,6.38-3.44,12.88-8.23,17.359
				c-4.91,5.101-12.149,8.04-19.14,8.23h-1.17h-1.78c-1.62,0-3.56,0-5.58,0.18h-10.93c-17-0.18-32.891-5.71-45.78-16.45
				c-1.16,3.011-3.07,5.9-5.52,8.29c-5.4,5.58-13.32,8.28-20.74,8.16c-7.25,0.12-15.22-2.52-20.69-8.04
				c-5.58-5.28-8.58-13.189-8.46-20.74v-53.39c-0.12-2.09-0.25-2.39-1.66-4.05c-0.8-0.74-1.38-1.04-1.84-1.29h-0.25
				c-0.3-0.061-0.98-0.18-1.59-0.25c-1.29-0.12-3.07-0.18-3.44-0.18c-0.92-0.061-4.29,0.25-5.4,0.43c-0.67,0.25-1.23,0.49-1.78,1.29
				c-1.66,1.66-1.72,2.02-1.72,4.17v54.62c0,5.95-2.88,11.66-2.88,11.66c-1.47,2.88-3.25,5.52-5.65,7.85
				c-5.4,5.4-13.25,8.17-20.74,8.04h-0.43c-7.3,0-14.85-2.7-20.19-8.16c-2.52-2.51-4.42-5.399-5.71-8.53
				c-13.13,11.171-29.64,17.19-47.59,17.19h-0.33c-19.89,0.24-38.3-7.06-52.1-21.18c-2.28-2.21-4.42-4.66-6.27-7.05
				c-1.9,2.449-4.04,4.84-6.32,7.109c-13.81,14.061-32.15,21.36-52.28,21.36h-0.52c-19.73,0-37.99-7.42-51.58-21.36
				c-1.66-1.71-3.26-3.31-4.55-4.899c-1.96,2.63-3.8,4.899-6.07,7.239c-12.03,11.96-27.92,18.41-44.98,18.41h-0.62
				c-17.36,0.3-33.69-6.26-45.72-18.229C6.5,182.819,0,166.55,0.061,149.189L0,68.12c-0.06-7.18,2.7-15.16,8.16-20.62
				c5.34-5.58,13.32-8.47,20.93-8.34c7.3-0.13,15.28,2.76,20.74,8.34c5.34,5.28,8.35,12.89,8.35,20.34l41.11-0.21
				c7.31-0.12,15.28,2.58,20.68,8.16c2.34,2.21,4.18,4.91,5.4,7.98c13.14-10.92,29.58-16.88,47.26-16.63
				c20-0.25,38.47,7.12,52.16,20.92c2.4,2.28,4.42,4.79,6.32,7.28c1.97-2.49,4.11-5,6.2-7.28c13.87-13.8,32.4-21.17,52.29-21.17
				c20.12,0,38.47,7.24,52.16,21.17c1.87,1.78,3.37,3.5,4.97,5.16c1.96-2.76,4.36-5.4,6.87-7.92
				c12.64-12.45,30.26-18.16,47.07-18.41h1.6c16.99,0,34.98,5.65,47.99,18.29c2.27,2.39,4.29,4.85,6.26,7.37
				c1.41-1.6,2.82-3.13,4.54-4.85c13.75-13.99,32.09-21.24,52.04-21.24h17.92l0.431,0.19c6.87,0.06,14.05,2.82,19.14,8.04
				c4.79,4.72,7.37,11.35,8.04,18.04c1.351-1.78,2.83-3.31,4.42-4.79c13.681-13.87,31.88-21.23,51.73-21.29h0.43
				c19.95,0,38.36,7.18,52.29,20.99c13.9,13.74,21.54,32.03,21.54,51.97v17.98c3.93-2.021,8.47-3.06,12.88-3.06
				c1.11-0.19,0.561,0.06,1.05-0.37c0.181-0.49,0.061,0,0.181-0.98v-27.07v-0.43c-0.12-15.89,5.96-31.05,17.31-41.91
				c11.41-11.35,26.51-16.88,42.41-16.63h9.63c0-7.3,2.7-14.98,8.1-20.25c5.4-5.65,13.44-8.53,20.801-8.47h0.069
				c7.48-0.06,15.34,2.82,20.74,8.28c5.521,5.4,8.22,13.08,8.22,20.44l41.061-0.25h0.3c7.37,0,15.22,2.58,20.69,8.23
				c5.399,5.34,8.279,13.31,8.159,20.55c0,0,0.061,6.39-2.34,13.08c-1.29,3-2.939,5.7-5.33,8.09c-1.85,1.85-4.05,3.44-6.39,4.55
				c2.27,1.351,4.12,2.76,5.77,4.54c5.53,5.15,8.41,13.07,8.351,20.44V148.51z M887.691,148.45v-2.08c0-4.61-1.601-8.29-4.48-11.36
				c-3.01-2.88-6.88-4.42-11.42-4.42c-4.6,0.06-8.43,1.6-11.41,4.42c-3.13,3.07-4.67,6.94-4.67,11.36v2.14c0,5.4-1.9,9.82-5.4,13.44
				c-3.739,3.75-8.22,5.59-13.56,5.59c-5.28,0-9.94-1.721-13.62-5.46c-3.75-3.69-5.53-8.17-5.53-13.57v-36.7l54.19-0.06
				c10.62,0,15.78-5.34,15.78-16.01c0-4.67-1.48-8.54-4.36-11.3c-2.95-3-6.69-4.41-11.54-4.41h-54.189V67.51
				c0-4.54-1.53-8.53-4.48-11.6c-3.07-3.01-6.81-4.42-11.53-4.42c-4.79,0-8.54,1.41-11.54,4.42c-2.89,3.07-4.3,7.06-4.3,11.6v12.52
				h-22.76c-13.2,0-24.24,4.17-33.33,12.82c-8.87,9.02-13.25,19.88-13.25,33.021v22.46c-0.06,1.84-0.06,3.37,0,4.72
				c0,4.24-1.48,7.61-4.12,10.37c-2.88,2.64-6.189,4.12-10.25,4.12c-4.66,0-8.46,1.47-11.47,4.35c-3.01,3.07-4.36,7-4.36,11.601
				c0,4.85,1.351,8.59,4.36,11.479c3.01,2.88,6.81,4.23,11.47,4.23c12.89,0,23.82-4.48,32.78-13.32
				c8.899-8.95,13.37-19.94,13.5-32.83v-27.18c0-3.99,1.35-7.24,4.17-10.011c2.52-2.76,6.2-4.05,10.92-4.05h22.34v36.7
				c0.13,14.42,4.91,26.45,14.73,36.271c9.88,9.699,21.85,14.609,36.58,14.609c14.229-0.07,26.319-4.91,36.02-14.8
				C882.84,174.899,887.691,162.81,887.691,148.45z M852.22,124.76h-21.54v23.75c0,2.33,0.301,2.83,1.53,4.36
				c1.66,1.29,2.15,1.66,4.54,1.72h0.19c2.02-0.06,2.569-0.43,4.05-1.66c1.1-1.47,1.439-2.09,1.72-4.3v-0.49v-1.77
				c-0.28-7.37,2.82-15.29,8.46-20.69C851.541,125.38,851.85,125.13,852.22,124.76z M675.791,185.39v-45.78
				c-0.07-16.869-5.84-31.05-17.62-42.649c-11.6-11.41-25.96-17.18-43.02-17.18c-17,0-31.23,5.77-42.83,17.18
				c-11.601,11.6-17.431,25.87-17.37,42.78c0,17,5.77,31.229,17.37,42.829C583.92,194.17,598.22,200,615.21,200
				c18.66,0,31.36-8.351,31.36-8.351c2.52,4.79,7.609,8.351,13.84,8.351C668.85,200,675.791,193.31,675.791,185.39z M545.871,183.68
				c0-4.79-1.47-8.41-4.601-11.479c-2.829-2.641-6.27-4.23-10.5-4.301h-17.489c-0.83,0-1.351,0-2.021-0.18
				c-7-0.24-13.2-3.01-18.109-8.22c-5.641-5.47-8.341-12.15-8.341-19.95c0-7.73,2.7-14.42,8.221-20
				c5.029-5.04,11.229-7.74,18.229-8.23h2.021c0.68,0,17.12,0,17.25-0.119c4.35-0.24,7.91-1.601,10.67-4.42
				c3.2-2.88,4.55-6.63,4.55-11.291c0-4.79-1.54-8.59-4.55-11.54c-2.76-2.82-6.2-4.17-10.431-4.42H513.1
				c-17,0-31.239,5.77-42.899,17.25c-6.17,6.26-10.74,13.38-13.68,21.23c-0.49,1.35-0.93,2.89-1.29,4.48
				c-1.6-10.86-6.44-20.25-14.18-28.041c-9.94-9.61-24.91-14.55-39.15-14.55c-14.36,0-29.21,4.94-38.97,14.55
				c-8.65,8.46-13.56,18.53-14.6,30.43c-2.46-10.43-7.68-19.82-15.66-27.61c-11.78-11.47-26.02-17.24-43.07-17.24
				c-17.06,0-31.43,5.77-42.9,17.24c-7.83,7.79-12.95,16.879-15.47,27.12c-2.64-10.24-7.73-19.33-15.58-27.06
				c-11.66-11.53-26.08-17.24-43.02-17.18c-17.06,0-31.36,5.65-42.96,17.18c-11.05,11.11-16.81,24.67-17.31,40.5
				c-0.43-0.67-0.98-1.41-1.72-1.931c-3-3.22-6.74-4.63-11.35-4.63c-4.6,0-8.47,1.41-11.47,4.63c-3.07,2.851-4.48,6.54-4.48,11.08
				v2.21c0,5.341-1.96,9.75-5.59,13.5c-3.5,3.801-8.1,5.4-13.37,5.4c-5.4,0.06-9.95-1.6-13.69-5.4c-3.68-3.62-5.55-8.159-5.55-13.5
				V112.49l54.15-0.12c10.62,0,15.77-5.34,15.77-15.96c0-4.72-1.41-8.47-4.29-11.35c-3.01-3.07-6.72-4.42-11.48-4.42l-54.15,0.06
				V68.24c0-4.78-1.57-8.65-4.58-11.53c-2.94-3.01-6.87-4.55-11.47-4.55c-4.94,0-8.72,1.54-11.66,4.55
				c-2.89,2.88-4.24,6.75-4.24,11.41l0.06,81.07c0,14.48,4.85,26.511,14.61,36.2c9.88,9.76,21.97,14.61,36.52,14.61
				c14.35,0,26.38-4.91,36.14-14.79c7.79-7.92,12.58-17.24,14.05-28.11c2.64,9.76,7.61,18.351,15.16,25.931
				c11.66,11.63,25.96,17.22,42.9,17.22c17.12,0,31.42-5.65,43.08-17.37c7.91-7.92,12.88-16.82,15.65-27.13
				c2.45,10.31,7.61,19.21,15.46,27.13c11.6,11.6,25.96,17.37,42.78,17.37c17.05,0,31.42-5.771,43.07-17.431
				c7.68-7.55,12.71-16.569,15.41-26.51v27.55c0,4.91,1.29,8.591,4.29,11.41c2.98,3.07,6.88,4.48,11.48,4.48
				c4.72,0,8.77-1.41,11.66-4.48c3.01-2.819,4.54-6.68,4.54-11.41l-0.12-53.27c0-5.21,1.9-9.69,5.64-13.38
				c2.03-2.08,4.24-3.55,6.88-4.48c2.02-0.79,6.99-0.979,9.45-1.1c2.39,0,7.36,0.31,9.45,1.1c2.51,0.931,4.73,2.4,6.84,4.42
				c3.9,3.75,5.68,8.23,5.68,13.32v53.39c0,4.66,1.59,8.591,4.54,11.41c3.07,2.95,6.81,4.3,11.54,4.3c4.66,0,8.71-1.35,11.47-4.3
				c2.95-2.819,4.36-6.87,4.36-11.41V158.58c0.31,0.92,0.49,1.84,0.74,2.64c2.94,7.91,7.51,14.72,13.87,21.04
				c11.471,11.54,25.891,17.31,42.891,17.31h17.739c4.171-0.18,7.61-1.72,10.25-4.42C544.401,192.14,545.871,188.34,545.871,183.68z
				 M541.76,139.74c0-6.511,0.82-13.08,2.45-19.091c-3.99,2.091-8.41,3.5-13.01,3.561h-0.431h-0.369h-0.49h-7.73
				c-4.229,0-8.47,0.06-8.899,0.06h-1.351c-3.989,0.431-6.5,1.601-9.51,4.36c-3.189,3.56-4.479,6.26-4.479,10.86
				c0.119,4.79,1.29,7.489,4.479,10.859c3.01,3.01,5.521,4.181,9.88,4.42h0.98h17.489h0.431c4.42,0.311,8.84,1.54,12.76,3.62
				C542.581,152.5,541.76,146.24,541.76,139.74z M79.71,125.439h-21.53v23.75c0.12,2.33,0.42,2.7,1.78,4.351
				c1.47,1.229,1.9,1.54,4.35,1.66h0.07c2.27-0.12,2.57-0.431,4.11-1.53c1.35-1.601,1.5-2.03,1.71-4.48v-2.21
				c-0.21-7.43,3.01-15.41,8.53-20.56C78.98,125.99,79.351,125.68,79.71,125.439z"/>
			<path fill="#FFFFFF" d="M887.691,146.37v2.08c0,14.359-4.851,26.449-14.73,36.14c-9.7,9.89-21.79,14.729-36.02,14.8
				c-14.73,0-26.7-4.91-36.58-14.609c-9.82-9.82-14.601-21.851-14.73-36.271v-36.7h-22.34c-4.72,0-8.4,1.29-10.92,4.05
				c-2.82,2.771-4.17,6.021-4.17,10.011v27.18c-0.13,12.89-4.601,23.88-13.5,32.83c-8.96,8.84-19.891,13.32-32.78,13.32
				c-4.66,0-8.46-1.351-11.47-4.23c-3.01-2.89-4.36-6.63-4.36-11.479c0-4.601,1.351-8.53,4.36-11.601
				c3.01-2.88,6.81-4.35,11.47-4.35c4.061,0,7.37-1.48,10.25-4.12c2.64-2.76,4.12-6.13,4.12-10.37c-0.06-1.35-0.06-2.88,0-4.72
				v-22.46c0-13.141,4.38-24,13.25-33.021c9.09-8.65,20.13-12.82,33.33-12.82h22.76V67.51c0-4.54,1.41-8.53,4.3-11.6
				c3-3.01,6.75-4.42,11.54-4.42c4.721,0,8.46,1.41,11.53,4.42c2.95,3.07,4.48,7.06,4.48,11.6v12.52h54.189
				c4.85,0,8.59,1.41,11.54,4.41c2.88,2.76,4.36,6.63,4.36,11.3c0,10.67-5.16,16.01-15.78,16.01l-54.19,0.06v36.7
				c0,5.4,1.78,9.88,5.53,13.57c3.68,3.739,8.34,5.46,13.62,5.46c5.34,0,9.82-1.84,13.56-5.59c3.5-3.62,5.4-8.04,5.4-13.44v-2.14
				c0-4.42,1.54-8.29,4.67-11.36c2.98-2.82,6.811-4.36,11.41-4.42c4.54,0,8.41,1.54,11.42,4.42
				C886.09,138.08,887.691,141.76,887.691,146.37z"/>
			<path fill="#FFFFFF" d="M675.791,139.609v45.78c0,7.92-6.94,14.61-15.38,14.61c-6.23,0-11.32-3.561-13.84-8.351
				c0,0-12.7,8.351-31.36,8.351c-16.99,0-31.29-5.83-42.89-17.431c-11.601-11.6-17.37-25.829-17.37-42.829
				c-0.061-16.91,5.77-31.181,17.37-42.78c11.6-11.41,25.83-17.18,42.83-17.18c17.06,0,31.42,5.77,43.02,17.18
				C669.951,108.56,675.72,122.74,675.791,139.609z M643.93,139.92c0-15.65-12.819-28.29-28.72-28.29
				c-15.77,0-28.41,12.64-28.41,28.29c0,15.649,12.641,28.17,28.41,28.17C631.111,168.09,643.93,155.569,643.93,139.92z"/>
			<path fill="#E20613" d="M615.21,111.63c15.9,0,28.72,12.64,28.72,28.29c0,15.649-12.819,28.17-28.72,28.17
				c-15.77,0-28.41-12.521-28.41-28.17C586.8,124.27,599.441,111.63,615.21,111.63z M630.581,140.04
				c-0.15-4.721-1.25-7.42-4.5-10.771c-3.44-3.279-6.33-4.39-10.99-4.51c-4.97,0.12-7.55,1.23-11.05,4.51
				c-3.19,3.351-4.17,5.931-4.17,10.471v0.3c0,4.729,0.979,7.55,4.3,10.99c3.37,3.189,6.07,4.289,10.8,4.539h0.12h0.12
				c4.73-0.25,7.43-1.409,10.81-4.729C629.331,147.35,630.43,144.77,630.581,140.04z"/>
			<path fill="#FFFFFF" d="M541.27,172.2c3.131,3.069,4.601,6.689,4.601,11.479c0,4.66-1.47,8.46-4.601,11.47
				c-2.64,2.7-6.079,4.24-10.25,4.42h-17.739c-17,0-31.42-5.77-42.891-17.31c-6.36-6.32-10.93-13.13-13.87-21.04
				c-0.25-0.8-0.43-1.72-0.74-2.64v25.279c0,4.54-1.41,8.591-4.36,11.41c-2.76,2.95-6.81,4.3-11.47,4.3c-4.73,0-8.47-1.35-11.54-4.3
				c-2.95-2.819-4.54-6.75-4.54-11.41v-53.39c0-5.09-1.78-9.57-5.68-13.32c-2.11-2.02-4.33-3.489-6.84-4.42
				c-2.09-0.79-7.06-1.1-9.45-1.1c-2.46,0.12-7.43,0.31-9.45,1.1c-2.64,0.931-4.85,2.4-6.88,4.48c-3.74,3.689-5.64,8.17-5.64,13.38
				l0.12,53.27c0,4.73-1.53,8.591-4.54,11.41c-2.89,3.07-6.94,4.48-11.66,4.48c-4.6,0-8.5-1.41-11.48-4.48
				c-3-2.819-4.29-6.5-4.29-11.41v-27.55c-2.7,9.94-7.73,18.96-15.41,26.51c-11.65,11.66-26.02,17.431-43.07,17.431
				c-16.82,0-31.18-5.771-42.78-17.37c-7.85-7.92-13.01-16.82-15.46-27.13c-2.77,10.31-7.74,19.21-15.65,27.13
				c-11.66,11.72-25.96,17.37-43.08,17.37c-16.94,0-31.24-5.59-42.9-17.22c-7.55-7.58-12.52-16.171-15.16-25.931
				c-1.47,10.87-6.26,20.19-14.05,28.11C90.76,195.09,78.73,200,64.38,200c-14.55,0-26.64-4.851-36.52-14.61
				c-9.76-9.689-14.61-21.72-14.61-36.2l-0.06-81.07c0-4.66,1.35-8.53,4.24-11.41c2.94-3.01,6.72-4.55,11.66-4.55
				c4.6,0,8.53,1.54,11.47,4.55c3.01,2.88,4.58,6.75,4.58,11.53V80.7l54.15-0.06c4.76,0,8.47,1.35,11.48,4.42
				c2.88,2.88,4.29,6.63,4.29,11.35c0,10.621-5.15,15.96-15.77,15.96l-54.15,0.12v36.699c0,5.341,1.87,9.88,5.55,13.5
				c3.74,3.801,8.29,5.46,13.69,5.4c5.27,0,9.87-1.6,13.37-5.4c3.63-3.75,5.59-8.159,5.59-13.5v-2.21c0-4.54,1.41-8.229,4.48-11.08
				c3-3.22,6.87-4.63,11.47-4.63c4.61,0,8.35,1.41,11.35,4.63c0.74,0.521,1.29,1.261,1.72,1.931c0.5-15.83,6.26-29.391,17.31-40.5
				c11.6-11.53,25.9-17.18,42.96-17.18c16.94-0.06,31.36,5.65,43.02,17.18c7.85,7.73,12.94,16.82,15.58,27.06
				c2.52-10.24,7.64-19.33,15.47-27.12c11.47-11.47,25.84-17.24,42.9-17.24c17.05,0,31.29,5.77,43.07,17.24
				c7.98,7.79,13.2,17.18,15.66,27.61c1.04-11.9,5.95-21.97,14.6-30.43c9.76-9.61,24.61-14.55,38.97-14.55
				c14.24,0,29.21,4.94,39.15,14.55c7.74,7.79,12.58,17.18,14.18,28.041c0.36-1.591,0.8-3.131,1.29-4.48
				c2.94-7.85,7.51-14.97,13.68-21.23C481.861,85.3,496.1,79.53,513.1,79.53h17.67c4.23,0.25,7.671,1.6,10.431,4.42
				c3.01,2.95,4.55,6.75,4.55,11.54c0,4.66-1.35,8.41-4.55,11.291c-2.76,2.819-6.32,4.18-10.67,4.42
				c-0.13,0.119-16.57,0.119-17.25,0.119h-2.021c-7,0.49-13.2,3.19-18.229,8.23c-5.521,5.58-8.221,12.27-8.221,20
				c0,7.8,2.7,14.48,8.341,19.95c4.909,5.21,11.109,7.979,18.109,8.22c0.67,0.18,1.19,0.18,2.021,0.18h17.489
				C535,167.97,538.441,169.56,541.27,172.2z M318.25,140.04c0-7.851-2.76-14.601-8.4-20.061c-5.71-5.47-12.28-8.17-20.25-8.17
				c-7.98,0-14.52,2.7-20.13,8.26c-5.46,5.431-8.23,12.12-8.23,19.971c0,7.92,2.77,14.55,8.23,20.189
				c5.61,5.59,12.27,8.351,20.13,8.351c7.97,0,14.54-2.88,20.25-8.351C315.491,154.59,318.25,147.96,318.25,140.04z"/>
			<path fill="#E20613" d="M309.851,119.979c5.64,5.46,8.4,12.21,8.4,20.061c0,7.92-2.76,14.55-8.4,20.189
				c-5.71,5.471-12.28,8.351-20.25,8.351c-7.86,0-14.52-2.761-20.13-8.351c-5.46-5.64-8.23-12.27-8.23-20.189
				c0-7.851,2.77-14.54,8.23-19.971c5.61-5.56,12.15-8.26,20.13-8.26C297.57,111.81,304.141,114.51,309.851,119.979z
				 M305.181,140.04c-0.12-4.721-1.22-7.42-4.48-10.771c-3.56-3.279-6.2-4.39-11.1-4.51c-4.85,0.12-7.49,1.23-10.93,4.51
				c-3.13,3.351-4.17,5.931-4.42,10.471v0.3c0.25,4.729,1.29,7.55,4.48,10.99c3.56,3.189,6.14,4.289,10.87,4.539h0.12h0.24
				c4.54-0.25,7.18-1.409,10.62-4.729C303.96,147.35,305.061,144.77,305.181,140.04z"/>
		</g>
		<g>
		</g>
	</g>
	<path fill="#E20613" d="M248.972,43.941c-20.744-20.252-44.923-30.5-73.334-31.297h-3.009c-27.309,0-50.811,8.958-71.554,27.553
		c-2.762,2.209-6.75,2.026-8.96-0.614c-2.515-2.515-2.271-6.443,0.401-8.837c22.857-20.372,49.922-30.806,80.114-30.744h3.437
		c31.421,0.797,59.191,12.58,81.744,34.735c2.455,2.455,2.515,6.504,0.12,9.021c-1.349,1.226-2.946,1.78-4.602,1.78
		C251.67,45.538,250.197,44.983,248.972,43.941"/>
	<path fill="#E20613" d="M223.81,63.456c-13.717-11.599-29.397-17.674-48.173-18.225h-2.241c-14.267,0-26.788,3.313-38.14,10.002
		c-3.009,1.657-6.937,0.675-8.713-2.331c-1.66-3.009-0.862-6.751,2.268-8.47c13.319-7.855,28.538-11.783,44.585-11.783h2.639
		c21.204,0.491,40.227,7.731,56.061,21.294c2.699,2.271,3.006,6.322,0.735,8.713c-1.289,1.596-3.069,2.455-4.91,2.455
		C226.508,65.112,225.099,64.377,223.81,63.456"/>
	<polygon fill="#E20613" points="173.059,92.054 187.42,121.264 219.942,125.929 196.561,148.819 202.084,180.854 173.059,165.817 
		144.03,180.854 149.677,148.88 126.112,125.989 158.454,121.327 	"/>
</g>
</svg>
